<?xml version="1.0" standalone="no"?>
<!DOCTYPE svg PUBLIC "-//W3C//DTD SVG 20010904//EN"
 "http://www.w3.org/TR/2001/REC-SVG-20010904/DTD/svg10.dtd">
<svg version="1.0" xmlns="http://www.w3.org/2000/svg"
 width="900.000000pt" height="900.000000pt" viewBox="0 0 900.000000 900.000000"
 preserveAspectRatio="xMidYMid meet">

<g transform="translate(0.000000,900.000000) scale(0.100000,-0.100000)"
fill="#000000" stroke="none">
<path d="M5245 8860 c-3 -5 3 -11 14 -11 12 -1 26 -2 33 -3 6 -1 13 5 16 12 5
15 -54 17 -63 2z"/>
<path d="M5355 8820 c3 -5 16 -10 28 -10 18 0 19 2 7 10 -20 13 -43 13 -35 0z"/>
<path d="M5465 8780 c-4 -6 6 -10 22 -10 22 0 25 2 13 10 -19 12 -27 12 -35 0z"/>
<path d="M5544 8737 c10 -7 29 -20 41 -30 13 -9 63 -38 111 -63 48 -26 122
-71 165 -100 43 -30 80 -54 84 -54 5 0 72 -50 148 -110 60 -48 221 -214 211
-217 -15 -5 -60 17 -126 60 -31 20 -65 37 -74 37 -9 0 -71 26 -138 59 -169 81
-365 161 -451 184 -38 9 -97 25 -245 67 -262 74 -769 104 -1125 67 -153 -15
-196 -23 -400 -68 -89 -20 -276 -75 -305 -90 -8 -4 -73 -30 -145 -57 -126 -49
-417 -191 -482 -235 -18 -12 -74 -49 -125 -82 -51 -32 -113 -76 -138 -96 -25
-20 -51 -38 -58 -40 -18 -6 -223 -190 -300 -269 -132 -135 -270 -289 -310
-346 -102 -144 -162 -235 -206 -314 -27 -47 -59 -103 -72 -125 -33 -54 -114
-225 -114 -239 0 -6 -6 -21 -14 -32 -18 -25 -76 -177 -104 -269 -59 -196 -76
-258 -93 -345 -10 -52 -23 -114 -29 -138 -33 -141 -37 -747 -5 -962 25 -172
44 -274 59 -315 8 -22 15 -48 16 -57 0 -10 6 -37 14 -60 7 -24 26 -88 41 -143
15 -55 48 -147 73 -205 92 -216 134 -306 164 -355 17 -27 39 -65 50 -82 34
-61 55 -98 82 -148 16 -27 34 -57 41 -65 7 -8 20 -31 28 -51 48 -117 365 -467
581 -643 118 -95 383 -276 406 -276 8 0 62 47 119 104 74 74 113 106 135 110
49 9 94 42 115 84 24 48 132 120 261 176 47 20 112 49 145 65 39 19 89 33 145
40 47 6 124 16 172 22 48 6 109 8 135 5 31 -4 57 -2 73 7 30 15 56 66 64 125
3 24 12 56 20 70 8 15 35 90 61 166 50 150 78 214 99 222 15 6 103 -45 160
-92 45 -37 86 -114 86 -161 0 -19 -7 -50 -15 -70 -8 -19 -15 -62 -15 -95 0
-33 -5 -69 -12 -81 -16 -28 -30 -134 -29 -214 1 -50 -3 -65 -18 -75 -29 -20
-65 -98 -68 -148 -3 -37 1 -47 17 -58 15 -9 26 -10 40 -2 10 5 27 10 37 10 21
0 63 72 63 108 0 35 18 26 29 -16 7 -23 25 -51 47 -70 42 -37 48 -39 39 -12
-5 15 -2 20 13 20 11 0 25 7 32 15 8 9 30 15 57 15 34 0 53 6 75 25 21 18 42
25 71 26 23 0 67 8 97 17 l55 18 3 44 c2 25 8 49 13 55 5 5 47 10 93 10 75 0
87 3 127 30 24 16 64 49 89 73 24 24 60 52 80 62 58 30 136 119 143 165 5 34
17 49 69 93 35 29 74 55 88 59 14 3 43 16 65 29 22 13 59 26 82 30 57 9 147
97 195 190 19 38 51 96 72 129 26 44 36 71 36 103 0 65 16 90 156 253 54 61
104 167 104 217 0 38 -24 68 -59 75 -16 4 -51 22 -76 42 -58 44 -82 50 -142
36 -78 -18 -147 -5 -158 29 -8 25 -36 33 -117 33 -53 0 -71 4 -84 18 -10 11
-23 19 -29 19 -26 0 -65 41 -65 68 0 15 -11 49 -25 76 -14 27 -25 58 -25 68 0
11 -5 28 -10 39 -16 29 -76 86 -98 93 -15 5 -19 15 -18 44 1 31 -3 38 -21 40
-12 2 -44 -6 -70 -18 -39 -18 -158 -50 -184 -50 -4 0 -33 25 -65 55 -33 31
-82 67 -111 80 -45 20 -53 28 -63 64 -6 23 -20 46 -32 52 -29 15 -104 4 -135
-21 -31 -24 -80 -26 -112 -3 -15 10 -45 17 -80 17 -55 1 -56 2 -54 28 1 15 43
90 96 170 80 121 118 183 176 288 32 57 49 106 41 114 -11 11 -60 -35 -100
-93 -59 -87 -271 -350 -345 -428 -44 -47 -83 -94 -87 -104 -4 -11 -17 -19 -28
-19 -17 0 -19 4 -13 28 8 31 8 70 -1 79 -3 3 -34 -5 -68 -19 -35 -14 -77 -31
-94 -38 -22 -8 -33 -20 -37 -40 -8 -35 -85 -110 -114 -110 -13 0 -23 -5 -23
-11 0 -5 10 -28 23 -49 21 -38 22 -41 5 -86 -12 -34 -14 -53 -7 -74 16 -46 -6
-83 -140 -231 -49 -54 -131 -193 -131 -221 0 -12 7 -18 23 -18 34 0 67 -28 67
-56 0 -40 -37 -102 -104 -173 -34 -36 -74 -82 -89 -102 -67 -88 -340 -352
-476 -460 -51 -40 -96 -82 -101 -93 -6 -18 6 -98 26 -163 5 -18 49 -16 64 2 7
8 25 41 40 72 18 40 45 73 85 108 124 106 366 365 472 507 32 43 68 83 81 90
21 11 26 8 65 -37 48 -57 77 -107 77 -136 0 -26 -33 -99 -62 -135 -48 -61
-150 -297 -179 -419 -22 -89 20 -114 57 -35 12 25 41 84 64 133 23 48 52 99
64 115 13 15 31 43 41 62 28 55 95 130 116 130 33 0 24 -55 -16 -104 -41 -50
-108 -192 -155 -326 -18 -52 -36 -99 -40 -103 -4 -5 -32 -12 -61 -17 -90 -14
-381 -117 -504 -178 -27 -13 -70 -41 -95 -61 -55 -45 -96 -71 -110 -71 -13 0
33 60 130 170 60 68 179 212 255 310 17 21 47 48 67 59 47 28 88 76 88 106 0
33 -53 75 -94 75 -55 0 -116 -64 -116 -122 0 -13 -17 -45 -37 -70 -35 -44 -77
-99 -180 -237 -23 -31 -59 -78 -80 -105 -57 -73 -142 -187 -161 -218 -20 -32
-30 -35 -47 -11 -11 14 -16 15 -44 3 -37 -15 -81 -64 -81 -90 0 -35 -20 -31
-88 16 -355 251 -660 572 -876 922 -73 118 -205 390 -246 507 -53 152 -111
356 -126 440 -47 274 -48 292 -49 640 0 330 1 345 28 495 19 104 51 227 99
375 154 480 394 873 748 1224 173 171 279 258 460 376 277 181 596 324 900
404 251 65 591 107 795 98 360 -17 535 -41 755 -103 207 -59 446 -152 620
-241 163 -84 225 -127 213 -146 -17 -28 -579 23 -788 71 -91 22 -169 54 -179
74 -37 75 -65 95 -148 105 -44 5 -51 3 -40 -8 32 -34 -3 -58 -51 -34 -34 17
-77 20 -77 5 0 -6 10 -14 23 -19 13 -5 29 -16 36 -25 7 -9 19 -16 25 -16 6 0
25 -7 41 -16 44 -23 194 -81 272 -105 38 -11 82 -27 99 -34 17 -7 53 -17 80
-21 27 -3 59 -11 72 -15 83 -31 562 -58 682 -39 52 8 83 9 101 2 33 -13 224
-166 307 -246 179 -172 353 -391 479 -601 49 -82 103 -179 103 -185 0 -5 22
-50 49 -102 81 -154 168 -433 218 -703 25 -138 25 -559 -1 -755 -33 -255 -88
-503 -160 -720 -119 -359 -336 -762 -561 -1042 -298 -371 -691 -710 -1040
-898 -44 -24 -113 -63 -153 -87 -98 -61 -458 -200 -647 -252 -130 -36 -332
-75 -480 -92 -226 -27 -597 -30 -775 -7 -69 9 -152 20 -185 23 -120 12 -390
76 -532 126 -49 17 -133 46 -188 65 -77 27 -301 131 -481 223 -7 3 -33 21 -59
39 -26 18 -50 30 -53 27 -8 -8 71 -74 91 -75 9 0 17 -3 17 -7 0 -5 21 -21 48
-37 26 -16 56 -38 68 -48 36 -32 348 -192 484 -248 41 -17 83 -35 92 -40 10
-6 23 -10 29 -10 5 0 34 -11 62 -23 66 -30 177 -63 242 -72 28 -4 60 -13 72
-21 12 -8 52 -18 87 -23 36 -5 70 -12 76 -16 6 -4 41 -11 78 -16 37 -5 87 -16
112 -24 29 -9 124 -17 265 -23 121 -5 240 -10 265 -11 106 -6 165 -5 335 7 99
7 200 20 225 27 67 21 177 46 245 56 33 5 92 18 130 30 152 47 217 69 248 83
52 24 150 56 172 56 11 0 31 7 45 14 14 8 57 31 95 51 39 20 88 47 110 61 22
13 56 31 75 40 81 38 372 222 455 288 50 40 106 83 125 97 19 13 58 44 85 70
28 25 62 53 77 63 34 22 168 153 168 164 0 5 30 43 68 85 129 146 321 425 453
660 92 163 103 184 149 302 16 39 42 104 60 145 17 41 40 104 50 140 11 36 29
97 40 135 19 64 48 188 86 370 8 39 19 111 24 160 5 50 15 142 21 205 16 155
16 417 1 515 -8 44 -15 159 -17 256 -2 153 -6 182 -24 224 -11 26 -21 62 -21
79 0 18 -4 36 -9 42 -6 5 -26 59 -45 119 -35 114 -66 198 -91 250 -8 17 -40
89 -71 160 -30 72 -70 157 -88 190 -19 33 -53 96 -76 140 -104 193 -304 476
-437 615 -35 36 -43 57 -40 100 2 21 -2 25 -21 23 -34 -4 -71 19 -132 82 -84
87 -280 249 -406 335 -20 14 -43 33 -52 43 -9 9 -20 17 -25 17 -4 0 -35 18
-68 40 -33 22 -63 40 -67 40 -3 0 -15 9 -26 19 -29 27 -208 121 -388 205 -59
27 -132 37 -94 13z m-1274 -3692 c0 -18 -43 -65 -59 -65 -11 0 -31 32 -31 49
0 10 44 29 73 30 9 1 17 -6 17 -14z m852 -17 c-6 -6 -16 -7 -22 -3 -9 6 -9 9
1 16 17 10 34 0 21 -13z m98 7 c0 -9 -9 -15 -25 -15 -16 0 -25 6 -25 15 0 9 9
15 25 15 16 0 25 -6 25 -15z m-95 -1686 c0 -7 -8 -15 -17 -17 -18 -3 -25 18
-11 32 10 10 28 1 28 -15z m-280 -39 c-10 -11 -22 -20 -27 -20 -15 0 -8 39 10
49 26 15 39 -5 17 -29z m0 -124 c8 -19 17 -52 21 -74 5 -32 3 -40 -11 -46 -22
-8 -48 18 -68 65 -15 38 -12 58 11 77 24 19 32 15 47 -22z m320 -26 c0 -13 -6
-25 -12 -27 -9 -3 -13 6 -13 27 0 21 4 30 13 28 6 -3 12 -15 12 -28z m-2071
-259 c3 -5 -1 -14 -9 -21 -12 -10 -18 -10 -30 0 -18 15 -11 30 15 30 10 0 21
-4 24 -9z"/>
<path d="M4154 8149 c-10 -17 12 -32 35 -24 29 9 27 35 -3 35 -14 0 -28 -5
-32 -11z"/>
<path d="M4430 8141 c0 -23 63 -61 77 -47 4 3 0 17 -7 31 -9 18 -22 25 -42 25
-15 0 -28 -4 -28 -9z"/>
<path d="M4650 8105 c0 -9 5 -15 11 -13 6 2 11 8 11 13 0 5 -5 11 -11 13 -6 2
-11 -4 -11 -13z"/>
<path d="M3911 8099 c-102 -13 -228 -59 -163 -59 10 0 31 -11 46 -24 22 -22
30 -24 56 -15 17 6 32 15 35 20 3 5 25 13 48 20 47 12 107 46 107 60 0 10 -38
10 -129 -2z"/>
<path d="M3676 8040 c-24 -4 -48 -18 -60 -33 -12 -14 -46 -35 -76 -46 -80 -30
-84 -34 -70 -60 16 -31 -3 -51 -47 -51 -24 0 -40 7 -53 22 l-17 22 -31 -25
c-17 -13 -49 -35 -72 -49 -23 -14 -46 -35 -51 -48 -5 -13 -22 -31 -39 -40 -23
-13 -30 -24 -30 -49 0 -25 7 -35 35 -52 41 -24 43 -36 14 -67 -20 -21 -20 -24
-6 -39 9 -9 19 -31 23 -50 6 -35 24 -49 24 -19 0 9 29 44 64 78 36 33 98 93
140 133 49 46 87 74 108 78 18 4 51 19 73 34 22 14 56 34 76 44 27 14 45 36
72 88 l37 69 -25 -6 c-60 -15 -106 29 -61 60 11 8 19 15 16 14 -3 0 -23 -4
-44 -8z m-53 -107 c9 -9 -13 -34 -24 -27 -14 8 -11 34 4 34 8 0 17 -3 20 -7z
m-75 -55 c17 -17 15 -36 -6 -47 -27 -14 -46 2 -38 33 7 28 25 33 44 14z"/>
<path d="M3256 7395 c4 -9 0 -15 -8 -15 -22 0 -52 -101 -45 -151 3 -23 11 -45
18 -50 25 -15 16 -554 -8 -564 -7 -2 -13 -11 -13 -19 0 -7 -11 -17 -25 -20
-13 -3 -29 -15 -35 -26 -6 -11 -20 -20 -30 -20 -30 0 -24 -17 8 -23 20 -4 33
0 50 19 13 13 29 24 37 24 8 0 15 5 15 10 0 16 118 12 151 -6 32 -16 64 -12
72 10 8 20 159 31 217 16 25 -6 63 -15 85 -19 87 -16 118 -56 108 -138 -5 -45
-3 -52 18 -66 33 -24 42 -8 35 59 -3 33 -9 92 -12 132 l-6 73 48 47 c82 79
123 110 154 117 16 4 33 11 36 16 3 6 17 14 30 19 34 13 50 58 27 76 -10 7
-26 11 -35 8 -10 -3 -18 -1 -18 5 0 6 -7 11 -15 11 -8 0 -15 4 -15 9 0 5 -16
15 -35 22 -19 7 -35 16 -35 21 0 4 -15 10 -34 14 -19 3 -37 12 -40 20 -3 8
-15 14 -26 14 -15 0 -20 7 -20 25 0 14 -4 25 -8 25 -5 0 -22 11 -38 25 -16 14
-35 25 -41 25 -7 0 -13 5 -13 10 0 6 -22 10 -49 10 -61 0 -81 17 -81 71 0 37
-1 39 -26 33 -19 -5 -29 -1 -40 15 -8 11 -22 21 -30 21 -17 0 -106 39 -114 49
-3 4 -25 13 -50 21 -25 7 -52 20 -61 27 -8 7 -32 13 -52 13 -20 0 -37 5 -37
10 0 6 -4 10 -10 10 -5 0 -7 -7 -4 -15z"/>
<path d="M2976 6418 c-3 -13 -7 -44 -10 -70 -3 -29 -14 -56 -26 -68 -12 -12
-20 -33 -20 -55 0 -19 -3 -34 -7 -34 -25 4 -33 -4 -33 -35 0 -25 -7 -40 -25
-54 -14 -11 -25 -28 -25 -39 0 -10 -4 -23 -8 -29 -7 -8 -13 -26 -38 -112 -2
-8 -15 -12 -31 -10 -16 2 -29 -1 -30 -7 -1 -5 7 -10 17 -9 11 0 20 -6 20 -14
0 -23 78 -89 156 -133 70 -38 117 -49 129 -29 3 6 24 10 45 10 41 0 36 4 152
-133 15 -18 36 -30 63 -34 22 -3 48 -13 58 -21 10 -9 39 -19 65 -22 40 -4 50
-10 73 -45 21 -31 37 -42 70 -50 26 -7 50 -21 62 -38 19 -24 19 -28 5 -44 -29
-34 -29 -42 -1 -57 15 -8 50 -35 77 -60 27 -25 54 -42 59 -39 6 3 -4 18 -21
32 -17 14 -42 50 -57 80 -26 52 -26 54 -10 93 9 24 13 52 10 69 -4 15 -2 43 3
62 9 33 7 38 -27 71 -39 39 -57 43 -106 25 -25 -10 -42 -8 -91 7 -50 16 -59
23 -62 45 -2 14 4 31 12 39 11 8 16 30 16 65 0 39 5 56 20 70 12 11 20 31 20
50 0 21 9 40 25 55 34 32 15 43 -59 34 -43 -5 -57 -11 -62 -27 -3 -11 -21 -45
-40 -77 l-33 -57 -101 -8 c-94 -6 -104 -5 -147 17 -26 12 -50 30 -54 38 -4 8
-19 39 -33 68 -34 69 -43 169 -26 263 8 41 18 69 26 69 18 0 24 24 24 101 0
66 -15 94 -24 47z"/>
<path d="M3900 6315 c0 -16 27 -32 37 -21 7 7 -16 36 -28 36 -5 0 -9 -7 -9
-15z"/>
<path d="M7056 6244 c-7 -24 6 -74 19 -73 6 0 9 16 9 35 -2 42 -19 65 -28 38z"/>
<path d="M7102 6110 c2 -19 8 -34 13 -33 17 3 17 27 0 48 -15 19 -15 18 -13
-15z"/>
<path d="M7133 5958 c-10 -36 -9 -57 8 -129 15 -60 27 -89 41 -98 18 -11 19
-10 13 11 -4 13 -12 25 -16 26 -5 2 -9 45 -9 95 0 137 -15 175 -37 95z"/>
<path d="M4082 5978 c3 -7 17 -15 33 -16 25 -3 27 -2 16 12 -16 19 -55 22 -49
4z"/>
<path d="M4170 5940 c0 -6 7 -10 15 -10 8 0 15 2 15 4 0 2 -7 6 -15 10 -8 3
-15 1 -15 -4z"/>
<path d="M4476 5861 c-44 -7 -55 -21 -31 -41 13 -11 26 -11 70 -1 30 7 55 17
55 22 0 8 -47 32 -53 28 -1 -1 -20 -5 -41 -8z"/>
<path d="M7215 5667 c-4 -8 -1 -26 7 -39 l13 -23 3 29 c4 33 -14 59 -23 33z"/>
<path d="M4040 5171 c0 -13 29 -35 37 -28 7 8 -15 37 -28 37 -5 0 -9 -4 -9 -9z"/>
<path d="M3810 5160 c0 -14 46 -31 65 -24 32 13 16 34 -25 34 -22 0 -40 -5
-40 -10z"/>
<path d="M7210 2765 c-10 -12 -10 -15 4 -15 9 0 16 7 16 15 0 8 -2 15 -4 15
-2 0 -9 -7 -16 -15z"/>
<path d="M7166 2714 c-4 -10 -1 -14 6 -12 15 5 23 28 10 28 -5 0 -13 -7 -16
-16z"/>
<path d="M7024 2577 c-172 -162 -426 -372 -528 -435 -24 -15 -77 -49 -117 -76
-40 -26 -85 -53 -99 -59 -14 -6 -36 -19 -49 -29 -13 -10 -31 -18 -39 -18 -9 0
-23 -6 -31 -14 -21 -17 -119 -66 -236 -116 -27 -12 -77 -34 -110 -50 -127 -58
-167 -73 -400 -151 -177 -59 -212 -69 -230 -69 -11 0 -58 -9 -105 -19 -47 -11
-116 -24 -155 -30 -38 -6 -90 -15 -115 -20 -25 -6 -71 -10 -103 -11 -33 0
-114 -10 -180 -21 -110 -19 -146 -21 -372 -16 -251 6 -374 -1 -310 -17 17 -4
37 -10 45 -13 89 -29 761 -56 845 -33 22 5 90 14 150 20 100 8 158 17 325 51
30 6 60 15 65 19 6 4 26 11 45 15 63 13 344 95 377 110 17 8 35 15 39 15 21 0
371 175 449 225 39 24 86 53 105 65 148 88 385 269 528 405 173 164 365 385
334 385 -5 0 -63 -51 -128 -113z"/>
<path d="M3680 1460 c20 -13 100 -13 100 0 0 6 -26 10 -57 10 -41 0 -54 -3
-43 -10z"/>
<path d="M4246 980 c-3 -8 -10 -44 -16 -80 -16 -94 -48 -196 -66 -211 -9 -8
-65 -16 -142 -21 -69 -5 -152 -15 -183 -23 -31 -8 -67 -15 -80 -15 -34 0 -298
-62 -404 -95 -49 -15 -101 -30 -115 -33 -14 -3 -36 -13 -49 -23 -13 -11 -31
-19 -40 -19 -25 0 -258 -121 -345 -178 -44 -29 -91 -59 -105 -67 -28 -14 -101
-84 -101 -96 0 -4 24 3 53 15 48 20 67 30 122 64 11 7 29 16 40 21 74 33 148
62 195 76 30 9 82 25 115 35 110 35 339 92 400 100 33 5 99 15 146 23 47 9
134 18 192 21 58 4 129 11 159 16 87 17 470 14 557 -5 41 -8 81 -13 90 -10 20
6 252 -21 301 -35 19 -5 53 -10 75 -10 56 0 153 -23 340 -82 270 -85 336 -109
435 -160 103 -52 110 -55 110 -34 0 32 -467 306 -523 306 -8 0 -26 9 -40 20
-14 11 -33 20 -42 20 -9 0 -26 5 -38 12 -28 15 -174 56 -257 73 -36 7 -99 20
-140 28 -163 33 -260 47 -384 55 -117 8 -131 11 -147 31 -19 24 -79 204 -79
238 0 10 -6 28 -14 39 -12 16 -15 16 -20 4z"/>
</g>
</svg>
